<svg width="194" height="150" viewBox="0 0 194 150" fill="none" xmlns="http://www.w3.org/2000/svg">
<g id="logo svg with shadow" clip-path="url(#clip0_1648_2117)">
<g id="&#208;&#161;&#208;&#187;&#208;&#190;&#208;&#185; 1">
<g id="Clip path group">
<mask id="mask0_1648_2117" style="mask-type:luminance" maskUnits="userSpaceOnUse" x="66" y="23" width="58" height="59">
<g id="clippath">
<path id="Vector" d="M96.0562 78.998C96.0739 79.9408 95.9618 80.924 95.7435 81.9128C95.8438 81.9128 95.95 81.9128 96.0562 81.9128C98.1625 81.8439 100.216 81.5621 102.186 81.0849C102.192 81.0849 102.198 81.0792 102.204 81.0677C102.611 79.6016 98.369 78.676 96.599 78.5208C96.5813 78.5208 96.5636 78.5208 96.5518 78.5208C96.2745 78.5208 96.0621 78.7277 96.068 79.0037M72.0783 66.6887C71.4175 67.0797 70.68 67.4131 69.9012 67.6891C69.6062 67.7926 69.4882 68.1375 69.6534 68.3905C70.7154 70.0061 71.9367 71.5124 73.2937 72.8922C73.2937 72.8922 73.3055 72.8979 73.3173 72.8979C74.816 72.5127 73.512 68.4652 72.7627 66.8957C72.6742 66.7174 72.5031 66.614 72.3261 66.614C72.2376 66.614 72.155 66.637 72.0724 66.683M118.842 64.2165C118.671 64.458 118.736 64.7684 119.002 64.9064C119.686 65.2744 120.347 65.7228 120.984 66.2403C121.22 66.4357 121.586 66.3667 121.733 66.0965C122.636 64.412 123.374 62.624 123.928 60.7727L123.916 60.7612C123.763 60.6059 123.568 60.537 123.35 60.537C122.028 60.537 119.727 63.0034 118.848 64.2165M68.2964 39.0863C67.3937 40.7709 66.6562 42.5531 66.1016 44.4044C66.1016 44.4102 66.1016 44.4217 66.1016 44.4274C67.1872 45.5083 70.149 42.3864 71.1756 40.9721C71.3467 40.7306 71.2818 40.4202 71.0163 40.2822C70.3319 39.9142 69.6652 39.4658 69.0339 38.9483C68.9395 38.8736 68.8274 38.8391 68.7212 38.8391C68.5501 38.8391 68.379 38.9253 68.2905 39.0921M116.706 32.2964H116.701C115.196 32.6758 116.506 36.7291 117.255 38.2987C117.379 38.5631 117.692 38.6609 117.945 38.5114C118.606 38.1204 119.338 37.787 120.123 37.5053C120.418 37.4018 120.536 37.0568 120.37 36.8038C119.308 35.1883 118.087 33.682 116.73 32.3021C116.73 32.3021 116.724 32.3021 116.718 32.3021C116.718 32.3021 116.718 32.3021 116.712 32.3021M93.9617 23.2872C91.8554 23.3562 89.8021 23.638 87.8315 24.1151C87.8256 24.1151 87.8197 24.1209 87.8138 24.1266C87.4067 25.5927 91.6489 26.5184 93.4189 26.6736C93.7198 26.6966 93.9617 26.4839 93.9558 26.1964C93.9381 25.2535 94.0502 24.2704 94.2685 23.2815C94.2508 23.2815 94.2331 23.2815 94.2213 23.2815C94.1328 23.2815 94.0502 23.2815 93.9617 23.2872Z" fill="white"/>
</g>
</mask>
<g mask="url(#mask0_1648_2117)">
<g id="Group">
<path id="Vector_2" d="M123.839 21.2999L63.9844 23.3367L66.154 83.8801L126.009 81.8434L123.839 21.2999Z" fill="url(#paint0_linear_1648_2117)"/>
</g>
</g>
</g>
<g id="Vector_3" filter="url(#filter0_d_1648_2117)">
<path d="M102.829 45.5081L103.272 48.6989C103.313 48.9921 103.071 49.2509 102.77 49.2394L102.163 49.2221C101.938 49.2164 101.75 49.0669 101.696 48.8542C101.49 47.986 100.841 45.8415 99.537 45.8415H97.9145C97.6431 45.8415 97.4248 46.0543 97.4248 46.3187V59.6168C97.4248 59.8986 98.0797 60.3125 98.2508 60.3988C98.9293 60.7437 99.4072 60.209 99.36 61.1289C99.3482 61.3876 99.1299 61.5889 98.8703 61.5889H91.035C90.7695 61.5889 90.5571 61.3876 90.5453 61.1289C90.4981 60.209 90.9819 60.7437 91.6545 60.3988C91.8197 60.3125 92.4746 59.8986 92.4746 59.6168V46.3187C92.4746 46.0543 92.2563 45.8415 91.9849 45.8415H90.3624C89.0585 45.8415 88.4095 47.986 88.203 48.8542C88.1499 49.0669 87.9611 49.2164 87.7369 49.2221L87.1292 49.2394C86.8283 49.2451 86.5864 48.9921 86.6277 48.6989L87.0702 45.5081C87.0997 45.2723 87.3121 45.0941 87.554 45.0941H102.34C102.587 45.0941 102.794 45.2723 102.823 45.5081" fill="white"/>
</g>
<g id="Clip path group_2" filter="url(#filter1_d_1648_2117)">
<mask id="mask1_1648_2117" style="mask-type:luminance" maskUnits="userSpaceOnUse" x="115" y="38" width="35" height="30">
<g id="clippath-1">
<path id="Vector_4" d="M131.877 54.8508C131.582 57.7139 133.729 60.2609 136.662 60.5483C139.6 60.8358 142.219 58.7488 142.509 55.8857C142.804 53.0225 140.662 50.4756 137.724 50.1881C137.541 50.1708 137.364 50.1593 137.181 50.1593C134.467 50.1593 132.154 52.1601 131.877 54.8508ZM118.478 40.5753C117.911 40.9777 117.368 41.3227 117.233 41.9436C117.174 42.2081 117.351 42.4725 117.628 42.5185C118.749 42.7083 119.876 42.5185 121.021 42.3173C121.888 42.1678 122.761 42.0241 123.64 42.0413C125.51 42.0816 128 42.5645 129.658 43.7374C130.077 44.0306 129.788 44.6803 129.281 44.594C127.693 44.3181 126.112 43.9444 124.484 43.9214C121.038 43.8811 117.781 45.7094 115.38 48.0379C115.722 49.5039 115.905 51.0275 115.905 52.5913C115.905 54.3851 115.669 56.1271 115.215 57.7829C115.244 57.7657 115.268 57.7484 115.297 57.7254C115.545 57.507 115.817 57.3 116.118 57.0988C122.26 53.0455 125.109 59.3697 129.328 62.3824C133.576 65.4122 139.564 67.2635 144.833 66.976C146.066 66.9071 150.751 66.1137 149.087 64.1186C148.35 63.2333 144.945 63.4287 142.178 63.63C140.821 63.7277 139.623 63.8254 138.969 63.7967C132.821 63.5035 126.419 59.6687 126.98 52.9823V52.9593C127.033 52.3786 127.906 52.3843 127.959 52.9593C127.988 53.31 128.042 53.6549 128.118 53.9884C128.183 54.2701 128.366 55.213 128.815 54.6381C129.169 54.1781 129.511 52.6028 129.912 51.8439C131.576 48.7048 135.015 47.3537 133.653 43.0992C132.62 39.8853 129.18 38.5573 125.64 38.5515C122.985 38.5515 120.271 39.2989 118.478 40.5695" fill="white"/>
</g>
</mask>
<g mask="url(#mask1_1648_2117)">
<g id="Group_2">
<path id="Vector_5" d="M150.751 38.5574H115.215V67.2636H150.751V38.5574Z" fill="url(#paint1_linear_1648_2117)"/>
</g>
</g>
</g>
<g id="Clip path group_3" filter="url(#filter2_d_1648_2117)">
<mask id="mask2_1648_2117" style="mask-type:luminance" maskUnits="userSpaceOnUse" x="100" y="65" width="25" height="40">
<g id="clippath-2">
<path id="Vector_6" d="M111.439 84.8448C108.748 86.0349 107.557 89.1165 108.772 91.7382C109.993 94.3541 113.156 95.5155 115.846 94.3311C118.531 93.1468 119.723 90.0594 118.507 87.4435C117.616 85.5175 115.669 84.3791 113.634 84.3791C112.896 84.3791 112.153 84.5286 111.439 84.8448ZM115.569 66.0331C115.303 66.1136 115.156 66.3953 115.25 66.654C115.941 68.4823 117.705 69.7357 118.69 71.4834C119.593 73.0817 120.407 75.4217 120.195 77.411C120.147 77.9054 119.428 77.9916 119.251 77.5202C118.696 76.0426 118.236 74.5191 117.439 73.1392C115.752 70.2071 112.489 68.3731 109.215 67.5222C106.772 69.7357 103.787 71.38 100.477 72.2538C100.506 72.2768 100.541 72.2941 100.583 72.3056C100.895 72.4033 101.214 72.5241 101.544 72.6793C108.223 75.8299 104.034 81.401 103.474 86.4661C102.907 91.5715 104.264 97.545 107.161 101.851C107.834 102.852 110.89 106.405 111.828 104.001C112.454 102.415 107.958 97.0276 107.043 95.3085C104.223 89.9789 104.424 82.6543 110.648 79.7797C110.648 79.7797 110.66 79.7797 110.666 79.7682C111.209 79.521 111.639 80.2626 111.15 80.5961C110.855 80.7973 110.577 81.0158 110.318 81.2457C110.094 81.4412 109.35 82.0736 110.088 82.1599C110.672 82.2289 112.241 81.7287 113.12 81.6827C114.218 81.6309 115.256 81.7977 116.253 81.9702C118.537 82.3611 120.608 82.7463 122.767 80.4581C126.856 76.1231 122.13 68.4421 117.41 66.3953C116.92 66.1826 116.466 65.9641 116.006 65.9641C115.864 65.9641 115.722 65.9871 115.575 66.0331" fill="white"/>
</g>
</mask>
<g mask="url(#mask2_1648_2117)">
<g id="Group_3">
<path id="Vector_7" d="M122.58 56.505L85.1895 72.5139L104.742 115.876L142.132 99.8667L122.58 56.505Z" fill="url(#paint2_linear_1648_2117)"/>
</g>
</g>
</g>
<g id="Clip path group_4" filter="url(#filter3_d_1648_2117)">
<mask id="mask3_1648_2117" style="mask-type:luminance" maskUnits="userSpaceOnUse" x="56" y="67" width="38" height="26">
<g id="clippath-3">
<path id="Vector_8" d="M67.0887 83.764C65.3659 86.0982 65.9087 89.3523 68.3041 91.0311C70.6995 92.7099 74.039 92.181 75.7618 89.8467C77.4846 87.5125 76.9418 84.2642 74.5464 82.5796C73.6024 81.9185 72.5109 81.5965 71.4312 81.5965C69.7673 81.5965 68.133 82.3497 67.0887 83.764ZM80.2989 67.16C80.3697 67.4762 80.4169 67.8097 80.4464 68.1604C80.9716 75.3758 73.9269 74.6111 69.136 76.6579C64.3157 78.7218 59.6723 82.8441 57.2887 87.4378C56.7282 88.5072 55.0939 92.8594 57.6958 92.4569C59.4245 92.1925 61.9733 85.7072 63.0531 84.0802C66.3866 79.0438 73.0006 75.5655 78.6646 79.3888C78.6705 79.3888 78.6764 79.3888 78.6823 79.4003C79.172 79.7337 78.7295 80.4696 78.1867 80.2224C77.8563 80.0729 77.5259 79.9465 77.1955 79.8372C76.9064 79.751 75.9801 79.4348 76.2692 80.1017C76.4934 80.6306 77.7265 81.7115 78.1985 82.4301C80.1573 85.4025 79.6263 88.9786 84.0927 89.9617C89.9928 91.2611 94.465 83.442 93.934 78.4286C93.8632 77.756 93.8337 77.1235 93.3499 76.6981C93.1434 76.5141 92.8189 76.5314 92.636 76.7383C91.3557 78.2332 91.1197 80.3489 90.0518 82.0507C89.0782 83.6087 87.3967 85.4658 85.5323 86.2764C85.0603 86.4834 84.6296 85.9142 84.96 85.529C85.9984 84.3274 87.1253 83.1833 87.9572 81.8207C89.7273 78.9288 89.7273 75.255 88.854 72.0642C85.5854 71.0868 82.6531 69.3447 80.2872 67.0565C80.2872 67.091 80.293 67.1255 80.2989 67.16Z" fill="white"/>
</g>
</mask>
<g mask="url(#mask3_1648_2117)">
<g id="Group_4">
<path id="Vector_9" d="M69.2397 48.6512L42.3887 83.5884L80.3152 111.266L107.166 76.3291L69.2397 48.6512Z" fill="url(#paint3_linear_1648_2117)"/>
</g>
</g>
</g>
<g id="Clip path group_5" filter="url(#filter4_d_1648_2117)">
<mask id="mask4_1648_2117" style="mask-type:luminance" maskUnits="userSpaceOnUse" x="40" y="38" width="35" height="29">
<g id="clippath-4">
<path id="Vector_10" d="M47.4867 49.297C47.1975 52.1544 49.3393 54.7071 52.2775 54.9945C55.2098 55.2763 57.8295 53.1893 58.1245 50.3261C58.4136 47.4687 56.2719 44.916 53.3336 44.6286C53.1566 44.6113 52.9796 44.6056 52.8026 44.6056C50.0886 44.6056 47.764 46.6121 47.4867 49.3027M45.162 38.2123C43.9289 38.2756 39.2502 39.0747 40.9081 41.0697C41.6456 41.9551 45.044 41.7539 47.7994 41.5584C49.1623 41.4607 50.3718 41.363 51.0326 41.3917C57.1746 41.6792 63.582 45.5197 63.0215 52.2061C63.0215 52.2119 63.0215 52.2176 63.0215 52.2291C62.9684 52.8098 62.1011 52.8041 62.048 52.2176C62.0126 51.8727 61.9595 51.5277 61.8887 51.1943C61.8238 50.9068 61.635 49.9639 61.1866 50.5446C60.8385 50.9988 60.4963 52.5798 60.0892 53.3387C58.4313 56.4779 54.9915 57.8232 56.3545 62.0834C58.154 67.7062 67.3404 67.5683 71.5294 64.6074C72.0899 64.2107 72.6327 63.8657 72.7684 63.2448C72.8274 62.9803 72.6504 62.7159 72.379 62.6641C71.258 62.4744 70.1311 62.6699 68.9865 62.8653C68.1192 63.0148 67.246 63.1643 66.361 63.147C64.4965 63.1068 62.0008 62.6181 60.3429 61.451C59.9299 61.152 60.2131 60.5081 60.7264 60.5944C62.3135 60.8703 63.8947 61.244 65.5173 61.2613C68.9747 61.3015 72.2315 59.4732 74.627 57.139C74.2848 55.6787 74.1019 54.1609 74.1019 52.5971C74.1019 50.8033 74.3379 49.0555 74.7922 47.3997C74.7627 47.417 74.7332 47.44 74.7037 47.463C74.4618 47.6757 74.1904 47.8827 73.8895 48.0839C67.7475 52.1429 64.8978 45.8187 60.6792 42.806C56.7144 39.9774 51.2509 38.1836 46.2594 38.1836C45.8936 38.1836 45.5278 38.1951 45.1679 38.2123" fill="white"/>
</g>
</mask>
<g mask="url(#mask4_1648_2117)">
<g id="Group_5">
<path id="Vector_11" d="M39.5104 35.248L36.6914 67.4883L74.533 70.6301L77.352 38.3899L39.5104 35.248Z" fill="url(#paint4_linear_1648_2117)"/>
</g>
</g>
</g>
<g id="Clip path group_6" filter="url(#filter5_d_1648_2117)">
<mask id="mask5_1648_2117" style="mask-type:luminance" maskUnits="userSpaceOnUse" x="65" y="0" width="25" height="40">
<g id="clippath-5">
<path id="Vector_12" d="M74.1539 10.8457C71.4635 12.0358 70.2717 15.1175 71.4871 17.7391C72.7084 20.3608 75.8709 21.5222 78.5613 20.3321C81.2517 19.1477 82.4435 16.0603 81.2222 13.4444C80.3313 11.5184 78.3843 10.38 76.3488 10.38C75.6113 10.38 74.8678 10.5295 74.148 10.8457M78.1601 1.17541C77.5406 2.76797 82.0364 8.14931 82.9509 9.8741C85.7653 15.198 85.5647 22.5226 79.346 25.403C79.3401 25.403 79.3342 25.4087 79.3283 25.4087C78.7855 25.6559 78.3548 24.92 78.8445 24.5808C79.1395 24.3796 79.4168 24.1669 79.6764 23.9369C79.8947 23.7414 80.6381 23.109 79.9006 23.0227C79.3224 22.9538 77.7471 23.4539 76.8739 23.4942C75.7765 23.5459 74.7381 23.3792 73.7468 23.2067C71.4635 22.8158 69.3926 22.4306 67.2332 24.7188C63.1385 29.0595 67.8645 36.7348 72.5904 38.7816C73.2276 39.0575 73.8058 39.345 74.4253 39.1495C74.6908 39.0633 74.8383 38.7816 74.738 38.5286C74.0477 36.7003 72.2836 35.447 71.2983 33.6992C70.4015 32.1009 69.5873 29.7552 69.7938 27.7717C69.8469 27.2715 70.5667 27.191 70.7437 27.6624C71.2983 29.14 71.7526 30.6578 72.5491 32.0376C74.2424 34.9755 77.5052 36.8096 80.7797 37.6547C83.2223 35.447 86.2078 33.7969 89.5177 32.9288C89.4882 32.9058 89.4528 32.8885 89.4115 32.877C89.0988 32.7793 88.7743 32.6528 88.4498 32.4976C81.7709 29.347 85.96 23.7817 86.5205 18.7165C87.0869 13.6111 85.7299 7.63187 82.8329 3.3314C82.3196 2.57249 80.4552 0.359009 79.1631 0.359009C78.7442 0.359009 78.3902 0.588981 78.1601 1.17541Z" fill="white"/>
</g>
</mask>
<g mask="url(#mask5_1648_2117)">
<g id="Group_6">
<path id="Vector_13" d="M87.5345 -6.4293L52.5723 3.30762L65.1359 46.1438L100.098 36.4069L87.5345 -6.4293Z" fill="url(#paint5_linear_1648_2117)"/>
</g>
</g>
</g>
<g id="Clip path group_7" filter="url(#filter6_d_1648_2117)">
<mask id="mask6_1648_2117" style="mask-type:luminance" maskUnits="userSpaceOnUse" x="96" y="12" width="38" height="27">
<g id="clippath-6">
<path id="Vector_14" d="M114.238 15.3301C112.51 17.6643 113.058 20.9184 115.448 22.5972C117.843 24.2817 121.183 23.7471 122.912 21.4186C124.634 19.0844 124.092 15.8303 121.696 14.1515C120.752 13.4846 119.655 13.1683 118.575 13.1683C116.917 13.1683 115.283 13.9215 114.238 15.3301ZM132.304 12.7256C130.576 12.9901 128.027 19.4696 126.947 21.1024C123.614 26.133 116.994 29.6113 111.336 25.7938C111.33 25.7881 111.324 25.7823 111.318 25.7823C110.828 25.4431 111.271 24.7129 111.814 24.9602C112.138 25.1096 112.468 25.2361 112.805 25.3396C113.088 25.4316 114.02 25.7421 113.731 25.0751C113.501 24.552 112.274 23.4711 111.802 22.7524C109.843 19.78 110.368 16.1982 105.908 15.2208C100.007 13.9215 95.5293 21.7405 96.0603 26.7482C96.1311 27.4266 96.1665 28.0533 96.6504 28.4845C96.8569 28.6627 97.1814 28.6455 97.3584 28.4385C98.6446 26.9437 98.8806 24.8337 99.9485 23.1261C100.916 21.5738 102.598 19.711 104.468 18.9004C104.94 18.6992 105.371 19.2626 105.04 19.6478C104.002 20.8494 102.875 21.9935 102.043 23.3561C100.273 26.2537 100.267 29.9218 101.146 33.1127C104.415 34.09 107.347 35.8321 109.713 38.1203C109.713 38.0858 109.707 38.0513 109.701 38.0168C109.631 37.7064 109.583 37.3729 109.554 37.0164C109.029 29.8068 116.073 30.5715 120.858 28.519C125.685 26.455 130.328 22.3327 132.712 17.7448C133.243 16.7157 134.765 12.7026 132.623 12.6969C132.523 12.6969 132.417 12.7084 132.304 12.7256Z" fill="white"/>
</g>
</mask>
<g mask="url(#mask6_1648_2117)">
<g id="Group_7">
<path id="Vector_15" d="M120.522 -5.68588L82.9824 21.9194L109.762 56.4989L147.302 28.8936L120.522 -5.68588Z" fill="url(#paint6_linear_1648_2117)"/>
</g>
</g>
</g>
<g id="Group_8" filter="url(#filter7_d_1648_2117)">
<path id="Vector_16" d="M15.9624 125.515H11.4843V143.563H7.47815V125.515H3V121.893H15.9624V125.515Z" fill="white"/>
<path id="Vector_17" d="M35.8527 139.975V143.563H24.3535V121.893H35.5341V125.481H28.2594V130.839H34.9323V134.306H28.2594V139.975H35.8527Z" fill="white"/>
<path id="Vector_18" d="M43.7637 137.434H47.7699C47.7994 139.383 48.8496 140.28 50.5311 140.28C52.307 140.28 53.1684 139.256 53.1684 137.865C53.1684 133.932 44.2062 133.622 44.2062 127.091C44.2062 123.871 46.5603 121.456 50.4957 121.456C54.431 121.456 56.8796 123.842 56.915 127.712H52.9088C52.8793 125.981 51.9884 125.142 50.4957 125.142C49.003 125.142 48.177 125.947 48.177 127.183C48.177 130.96 57.2336 131.087 57.2336 137.894C57.2336 141.297 54.785 143.994 50.4957 143.994C46.2063 143.994 43.7932 141.608 43.7578 137.428" fill="white"/>
<path id="Vector_19" d="M77.5718 125.515H73.0937V143.563H69.0875V125.515H64.6094V121.893H77.5718V125.515Z" fill="white"/>
<path id="Vector_20" d="M85.5762 136.6V128.861C85.5762 124.279 88.184 121.525 92.5972 121.525C97.0105 121.525 99.5888 124.279 99.5888 128.861V136.6C99.5888 141.182 96.981 143.936 92.5972 143.936C88.2135 143.936 85.5762 141.182 85.5762 136.6ZM95.5532 136.6V128.861C95.5532 126.51 94.5679 125.211 92.5972 125.211C90.6266 125.211 89.6118 126.51 89.6118 128.861V136.6C89.6118 138.951 90.6266 140.257 92.5972 140.257C94.5679 140.257 95.5532 138.957 95.5532 136.6Z" fill="white"/>
<path id="Vector_21" d="M120.051 139.94V143.563H109.189V121.893H113.095V139.94H120.051Z" fill="white"/>
<path id="Vector_22" d="M127.744 136.6V128.862C127.744 124.279 130.352 121.526 134.765 121.526C139.178 121.526 141.757 124.279 141.757 128.862V136.6C141.757 141.182 139.149 143.936 134.765 143.936C130.381 143.936 127.744 141.182 127.744 136.6ZM137.721 136.6V128.862C137.721 126.51 136.736 125.211 134.765 125.211C132.795 125.211 131.78 126.51 131.78 128.862V136.6C131.78 138.952 132.795 140.257 134.765 140.257C136.736 140.257 137.721 138.957 137.721 136.6Z" fill="white"/>
<path id="Vector_23" d="M156.559 134.737L155.191 136.813V143.563H151.35V121.893H155.191V130.776L156.494 128.241L160.212 121.893H164.725L158.754 131.334L165.681 143.563H161.232L156.559 134.737Z" fill="white"/>
<path id="Vector_24" d="M182.045 139.63H176.835L175.944 143.562H171.879L177.342 121.888H181.537L187.001 143.562H182.936L182.045 139.63ZM181.248 136.008L180.357 131.983C180.039 130.5 179.691 128.114 179.466 126.659H179.372C179.183 128.114 178.829 130.5 178.516 131.983L177.626 136.008H181.248Z" fill="white"/>
</g>
<g id="Clip path group_8">
<mask id="mask7_1648_2117" style="mask-type:luminance" maskUnits="userSpaceOnUse" x="74" y="32" width="42" height="41">
<g id="clippath-7">
<path id="Vector_25" d="M76.8255 52.5913C76.8255 42.8118 84.9617 34.8777 94.9977 34.8777C105.034 34.8777 113.176 42.806 113.176 52.5913C113.176 62.3766 105.04 70.2992 94.9977 70.2992C84.9558 70.2992 76.8255 62.3709 76.8255 52.5913ZM74.0938 52.5913C74.0938 63.8427 83.4513 72.9611 94.9977 72.9611C106.544 72.9611 115.902 63.8427 115.902 52.5913C115.902 41.3399 106.544 32.2216 94.9977 32.2216C83.4513 32.2216 74.0938 41.3399 74.0938 52.5913Z" fill="white"/>
</g>
</mask>
<g mask="url(#mask7_1648_2117)">
<g id="Group_9">
<g id="Vector_26" filter="url(#filter8_d_1648_2117)">
<path d="M94.3947 11.8517L53.1973 53.1766L95.6059 93.3212L136.803 51.9963L94.3947 11.8517Z" fill="url(#paint7_linear_1648_2117)"/>
</g>
</g>
</g>
</g>
</g>
</g>
<defs>
<filter id="filter0_d_1648_2117" x="86.623" y="45.0941" width="24.6523" height="24.4948" filterUnits="userSpaceOnUse" color-interpolation-filters="sRGB">
<feFlood flood-opacity="0" result="BackgroundImageFix"/>
<feColorMatrix in="SourceAlpha" type="matrix" values="0 0 0 0 0 0 0 0 0 0 0 0 0 0 0 0 0 0 127 0" result="hardAlpha"/>
<feOffset dx="4" dy="4"/>
<feGaussianBlur stdDeviation="2"/>
<feComposite in2="hardAlpha" operator="out"/>
<feColorMatrix type="matrix" values="0 0 0 0 1 0 0 0 0 1 0 0 0 0 1 0 0 0 0.25 0"/>
<feBlend mode="normal" in2="BackgroundImageFix" result="effect1_dropShadow_1648_2117"/>
<feBlend mode="normal" in="SourceGraphic" in2="effect1_dropShadow_1648_2117" result="shape"/>
</filter>
<filter id="filter1_d_1648_2117" x="115.215" y="38.5574" width="42.2266" height="36.4479" filterUnits="userSpaceOnUse" color-interpolation-filters="sRGB">
<feFlood flood-opacity="0" result="BackgroundImageFix"/>
<feColorMatrix in="SourceAlpha" type="matrix" values="0 0 0 0 0 0 0 0 0 0 0 0 0 0 0 0 0 0 127 0" result="hardAlpha"/>
<feOffset dx="4" dy="4"/>
<feGaussianBlur stdDeviation="2"/>
<feComposite in2="hardAlpha" operator="out"/>
<feColorMatrix type="matrix" values="0 0 0 0 1 0 0 0 0 1 0 0 0 0 1 0 0 0 0.25 0"/>
<feBlend mode="normal" in2="BackgroundImageFix" result="effect1_dropShadow_1648_2117"/>
<feBlend mode="normal" in="SourceGraphic" in2="effect1_dropShadow_1648_2117" result="shape"/>
</filter>
<filter id="filter2_d_1648_2117" x="100.477" y="65.9641" width="31.8477" height="46.8563" filterUnits="userSpaceOnUse" color-interpolation-filters="sRGB">
<feFlood flood-opacity="0" result="BackgroundImageFix"/>
<feColorMatrix in="SourceAlpha" type="matrix" values="0 0 0 0 0 0 0 0 0 0 0 0 0 0 0 0 0 0 127 0" result="hardAlpha"/>
<feOffset dx="4" dy="4"/>
<feGaussianBlur stdDeviation="2"/>
<feComposite in2="hardAlpha" operator="out"/>
<feColorMatrix type="matrix" values="0 0 0 0 1 0 0 0 0 1 0 0 0 0 1 0 0 0 0.25 0"/>
<feBlend mode="normal" in2="BackgroundImageFix" result="effect1_dropShadow_1648_2117"/>
<feBlend mode="normal" in="SourceGraphic" in2="effect1_dropShadow_1648_2117" result="shape"/>
</filter>
<filter id="filter3_d_1648_2117" x="56.2656" y="67.0565" width="45.7109" height="33.4266" filterUnits="userSpaceOnUse" color-interpolation-filters="sRGB">
<feFlood flood-opacity="0" result="BackgroundImageFix"/>
<feColorMatrix in="SourceAlpha" type="matrix" values="0 0 0 0 0 0 0 0 0 0 0 0 0 0 0 0 0 0 127 0" result="hardAlpha"/>
<feOffset dx="4" dy="4"/>
<feGaussianBlur stdDeviation="2"/>
<feComposite in2="hardAlpha" operator="out"/>
<feColorMatrix type="matrix" values="0 0 0 0 1 0 0 0 0 1 0 0 0 0 1 0 0 0 0.25 0"/>
<feBlend mode="normal" in2="BackgroundImageFix" result="effect1_dropShadow_1648_2117"/>
<feBlend mode="normal" in="SourceGraphic" in2="effect1_dropShadow_1648_2117" result="shape"/>
</filter>
<filter id="filter4_d_1648_2117" x="40.5566" y="38.1836" width="42.2363" height="36.4439" filterUnits="userSpaceOnUse" color-interpolation-filters="sRGB">
<feFlood flood-opacity="0" result="BackgroundImageFix"/>
<feColorMatrix in="SourceAlpha" type="matrix" values="0 0 0 0 0 0 0 0 0 0 0 0 0 0 0 0 0 0 127 0" result="hardAlpha"/>
<feOffset dx="4" dy="4"/>
<feGaussianBlur stdDeviation="2"/>
<feComposite in2="hardAlpha" operator="out"/>
<feColorMatrix type="matrix" values="0 0 0 0 1 0 0 0 0 1 0 0 0 0 1 0 0 0 0.25 0"/>
<feBlend mode="normal" in2="BackgroundImageFix" result="effect1_dropShadow_1648_2117"/>
<feBlend mode="normal" in="SourceGraphic" in2="effect1_dropShadow_1648_2117" result="shape"/>
</filter>
<filter id="filter5_d_1648_2117" x="65.6719" y="0.359009" width="31.8457" height="46.8548" filterUnits="userSpaceOnUse" color-interpolation-filters="sRGB">
<feFlood flood-opacity="0" result="BackgroundImageFix"/>
<feColorMatrix in="SourceAlpha" type="matrix" values="0 0 0 0 0 0 0 0 0 0 0 0 0 0 0 0 0 0 127 0" result="hardAlpha"/>
<feOffset dx="4" dy="4"/>
<feGaussianBlur stdDeviation="2"/>
<feComposite in2="hardAlpha" operator="out"/>
<feColorMatrix type="matrix" values="0 0 0 0 1 0 0 0 0 1 0 0 0 0 1 0 0 0 0.25 0"/>
<feBlend mode="normal" in2="BackgroundImageFix" result="effect1_dropShadow_1648_2117"/>
<feBlend mode="normal" in="SourceGraphic" in2="effect1_dropShadow_1648_2117" result="shape"/>
</filter>
<filter id="filter6_d_1648_2117" x="96.0176" y="12.6969" width="45.7148" height="33.4234" filterUnits="userSpaceOnUse" color-interpolation-filters="sRGB">
<feFlood flood-opacity="0" result="BackgroundImageFix"/>
<feColorMatrix in="SourceAlpha" type="matrix" values="0 0 0 0 0 0 0 0 0 0 0 0 0 0 0 0 0 0 127 0" result="hardAlpha"/>
<feOffset dx="4" dy="4"/>
<feGaussianBlur stdDeviation="2"/>
<feComposite in2="hardAlpha" operator="out"/>
<feColorMatrix type="matrix" values="0 0 0 0 1 0 0 0 0 1 0 0 0 0 1 0 0 0 0.25 0"/>
<feBlend mode="normal" in2="BackgroundImageFix" result="effect1_dropShadow_1648_2117"/>
<feBlend mode="normal" in="SourceGraphic" in2="effect1_dropShadow_1648_2117" result="shape"/>
</filter>
<filter id="filter7_d_1648_2117" x="3" y="121.456" width="192" height="30.5372" filterUnits="userSpaceOnUse" color-interpolation-filters="sRGB">
<feFlood flood-opacity="0" result="BackgroundImageFix"/>
<feColorMatrix in="SourceAlpha" type="matrix" values="0 0 0 0 0 0 0 0 0 0 0 0 0 0 0 0 0 0 127 0" result="hardAlpha"/>
<feOffset dx="4" dy="4"/>
<feGaussianBlur stdDeviation="2"/>
<feComposite in2="hardAlpha" operator="out"/>
<feColorMatrix type="matrix" values="0 0 0 0 1 0 0 0 0 1 0 0 0 0 1 0 0 0 0.25 0"/>
<feBlend mode="normal" in2="BackgroundImageFix" result="effect1_dropShadow_1648_2117"/>
<feBlend mode="normal" in="SourceGraphic" in2="effect1_dropShadow_1648_2117" result="shape"/>
</filter>
<filter id="filter8_d_1648_2117" x="53.1973" y="11.8517" width="91.6055" height="89.4695" filterUnits="userSpaceOnUse" color-interpolation-filters="sRGB">
<feFlood flood-opacity="0" result="BackgroundImageFix"/>
<feColorMatrix in="SourceAlpha" type="matrix" values="0 0 0 0 0 0 0 0 0 0 0 0 0 0 0 0 0 0 127 0" result="hardAlpha"/>
<feOffset dx="4" dy="4"/>
<feGaussianBlur stdDeviation="2"/>
<feComposite in2="hardAlpha" operator="out"/>
<feColorMatrix type="matrix" values="0 0 0 0 1 0 0 0 0 1 0 0 0 0 1 0 0 0 0.25 0"/>
<feBlend mode="normal" in2="BackgroundImageFix" result="effect1_dropShadow_1648_2117"/>
<feBlend mode="normal" in="SourceGraphic" in2="effect1_dropShadow_1648_2117" result="shape"/>
</filter>
<linearGradient id="paint0_linear_1648_2117" x1="66.5924" y1="54.6065" x2="123.755" y2="52.5579" gradientUnits="userSpaceOnUse">
<stop stop-color="#FFF374"/>
<stop offset="0.14" stop-color="#FFF374"/>
<stop offset="1" stop-color="#F59E33"/>
</linearGradient>
<linearGradient id="paint1_linear_1648_2117" x1="143.683" y1="52.852" x2="116.23" y2="52.852" gradientUnits="userSpaceOnUse">
<stop stop-color="#F088B6"/>
<stop offset="0.14" stop-color="#F088B6"/>
<stop offset="1" stop-color="#C52B76"/>
</linearGradient>
<linearGradient id="paint2_linear_1648_2117" x1="119.677" y1="98.7755" x2="106.603" y2="68.2393" gradientUnits="userSpaceOnUse">
<stop stop-color="#F9B104"/>
<stop offset="0.22" stop-color="#F9B104"/>
<stop offset="0.97" stop-color="#E63312"/>
<stop offset="1" stop-color="#E63312"/>
</linearGradient>
<linearGradient id="paint3_linear_1648_2117" x1="61.2756" y1="96.1225" x2="82.4474" y2="67.1111" gradientUnits="userSpaceOnUse">
<stop stop-color="#EBA7CB"/>
<stop offset="0.31" stop-color="#EBA7CB"/>
<stop offset="0.97" stop-color="#823F91"/>
<stop offset="1" stop-color="#823F91"/>
</linearGradient>
<linearGradient id="paint4_linear_1648_2117" x1="40.9558" y1="51.821" x2="73.8701" y2="54.699" gradientUnits="userSpaceOnUse">
<stop stop-color="#C4DB9B"/>
<stop offset="0.39" stop-color="#C4DB9B"/>
<stop offset="0.56" stop-color="#B5D7A4"/>
<stop offset="0.87" stop-color="#8FCCBD"/>
<stop offset="0.91" stop-color="#8ACBC1"/>
<stop offset="1" stop-color="#8ACBC1"/>
</linearGradient>
<linearGradient id="paint5_linear_1648_2117" x1="72.2743" y1="3.34025" x2="81.5298" y2="36.5738" gradientUnits="userSpaceOnUse">
<stop stop-color="#83D0F5"/>
<stop offset="0.35" stop-color="#83D0F5"/>
<stop offset="0.95" stop-color="#195393"/>
<stop offset="1" stop-color="#195393"/>
</linearGradient>
<linearGradient id="paint6_linear_1648_2117" x1="133.728" y1="12.5775" x2="104.421" y2="35.2744" gradientUnits="userSpaceOnUse">
<stop stop-color="#E8E100"/>
<stop offset="0.14" stop-color="#E8E100"/>
<stop offset="1" stop-color="#0A9D46"/>
</linearGradient>
<linearGradient id="paint7_linear_1648_2117" x1="-2788.73" y1="-2677.48" x2="-2817.21" y2="-2705.88" gradientUnits="userSpaceOnUse">
<stop stop-color="#FFF374"/>
<stop offset="0.14" stop-color="#FFF374"/>
<stop offset="1" stop-color="#F59E33"/>
</linearGradient>
<clipPath id="clip0_1648_2117">
<rect width="194" height="149.497" fill="white" transform="translate(0 0.359009)"/>
</clipPath>
</defs>
</svg>
