<?xml version="1.0" encoding="UTF-8"?>
<svg id="_Слой_2" data-name="Слой 2" xmlns="http://www.w3.org/2000/svg" xmlns:xlink="http://www.w3.org/1999/xlink" viewBox="0 0 184.54 181.69">
  <defs>
    <style>
      .cls-1 {
        fill: url(#_Безымянный_градиент_3);
      }

      .cls-1, .cls-2, .cls-3, .cls-4, .cls-5, .cls-6, .cls-7, .cls-8, .cls-9, .cls-10 {
        stroke-width: 0px;
      }

      .cls-2 {
        fill: url(#_Безымянный_градиент_4);
      }

      .cls-3 {
        fill: url(#_Безымянный_градиент_2);
      }

      .cls-11 {
        clip-path: url(#clippath-2);
      }

      .cls-12 {
        clip-path: url(#clippath-6);
      }

      .cls-4 {
        fill: none;
      }

      .cls-13 {
        clip-path: url(#clippath-7);
      }

      .cls-5 {
        fill: url(#_Безымянный_градиент_8);
      }

      .cls-14 {
        clip-path: url(#clippath-1);
      }

      .cls-15 {
        clip-path: url(#clippath-4);
      }

      .cls-6 {
        fill: #fff;
      }

      .cls-7 {
        fill: url(#_Безымянный_градиент_5);
      }

      .cls-8 {
        fill: url(#_Безымянный_градиент_6);
      }

      .cls-16 {
        clip-path: url(#clippath);
      }

      .cls-17 {
        clip-path: url(#clippath-3);
      }

      .cls-18 {
        clip-path: url(#clippath-5);
      }

      .cls-9 {
        fill: url(#_Безымянный_градиент_7);
      }

      .cls-10 {
        fill: url(#_Безымянный_градиент_8-2);
      }
    </style>
    <clipPath id="clippath">
      <path class="cls-4" d="m94.06,136.78c.03,1.64-.16,3.35-.53,5.07.17,0,.35,0,.53,0,3.57-.12,7.05-.61,10.39-1.44.01,0,.02-.01.03-.03h0c.69-2.55-6.5-4.16-9.5-4.43-.03,0-.06,0-.08,0-.47,0-.83.36-.82.84m-40.66-21.42c-1.12.68-2.37,1.26-3.69,1.74-.5.18-.7.78-.42,1.22,1.8,2.81,3.87,5.43,6.17,7.83,0,0,.02.01.04.01h0c2.54-.67.33-7.71-.94-10.44-.15-.31-.44-.49-.74-.49-.15,0-.29.04-.43.12m79.27-4.29c-.29.42-.18.96.27,1.2,1.16.64,2.28,1.42,3.36,2.32.4.34,1.02.22,1.27-.25,1.53-2.93,2.78-6.04,3.72-9.26h0s-.02-.02-.02-.02c-.26-.27-.59-.39-.96-.39-2.24,0-6.14,4.29-7.63,6.4m-85.68-43.71c-1.53,2.93-2.78,6.03-3.72,9.25,0,.01,0,.03,0,.04,1.84,1.88,6.86-3.55,8.6-6.01.29-.42.18-.96-.27-1.2-1.16-.64-2.29-1.42-3.36-2.32-.16-.13-.35-.19-.53-.19-.29,0-.58.15-.73.44m82.06-11.82h-.01c-2.55.66-.33,7.71.94,10.44.21.46.74.63,1.17.37,1.12-.68,2.36-1.26,3.69-1.75.5-.18.7-.78.42-1.22-1.8-2.81-3.87-5.43-6.17-7.83,0,0-.01,0-.02,0,0,0,0,0-.01,0m-38.56-15.68c-3.57.12-7.05.61-10.39,1.44-.01,0-.02.01-.03.02h0c-.69,2.55,6.5,4.16,9.5,4.43.51.04.92-.33.91-.83-.03-1.64.16-3.35.53-5.07-.03,0-.06,0-.08,0-.15,0-.29,0-.44.01"/>
    </clipPath>
    <linearGradient id="_Безымянный_градиент_8" data-name="Безымянный градиент 8" x1="-162.84" y1="306.6" x2="-161.84" y2="306.6" gradientTransform="translate(15832.32 29817.54) scale(96.95 -96.95)" gradientUnits="userSpaceOnUse">
      <stop offset="0" stop-color="#fff374"/>
      <stop offset=".14" stop-color="#fff374"/>
      <stop offset="1" stop-color="#f59e33"/>
    </linearGradient>
    <clipPath id="clippath-1">
      <path class="cls-4" d="m154.78,94.78c-.5,4.98,3.14,9.41,8.11,9.91,4.98.5,9.42-3.13,9.91-8.11.5-4.98-3.13-9.41-8.11-9.91-.31-.03-.61-.05-.92-.05-4.6,0-8.52,3.48-8.99,8.16m-22.71-24.83c-.96.7-1.88,1.3-2.11,2.38-.1.46.2.92.67,1,1.9.33,3.81,0,5.75-.35,1.47-.26,2.95-.51,4.44-.48,3.17.07,7.39.91,10.2,2.95.71.51.22,1.64-.64,1.49-2.69-.48-5.37-1.13-8.13-1.17-5.84-.07-11.36,3.11-15.43,7.16.58,2.55.89,5.2.89,7.92,0,3.12-.4,6.15-1.17,9.03.05-.03.09-.06.14-.1.42-.38.88-.74,1.39-1.09,10.41-7.05,15.24,3.95,22.39,9.19,7.2,5.27,17.35,8.49,26.28,7.99,2.09-.12,10.03-1.5,7.21-4.97-1.25-1.54-7.02-1.2-11.71-.85-2.3.17-4.33.34-5.44.29-10.42-.51-21.27-7.18-20.32-18.81v-.04c.09-1.01,1.57-1,1.66,0,.05.61.14,1.21.27,1.79.11.49.42,2.13,1.18,1.13.6-.8,1.18-3.54,1.86-4.86,2.82-5.46,8.65-7.81,6.34-15.21-1.75-5.59-7.58-7.9-13.58-7.91-4.5,0-9.1,1.3-12.14,3.51"/>
    </clipPath>
    <linearGradient id="_Безымянный_градиент_2" data-name="Безымянный градиент 2" x1="-162.84" y1="306.61" x2="-161.84" y2="306.61" gradientTransform="translate(-7402.5 -14175.26) rotate(-180) scale(46.53 -46.53)" gradientUnits="userSpaceOnUse">
      <stop offset="0" stop-color="#f088b6"/>
      <stop offset=".14" stop-color="#f088b6"/>
      <stop offset="1" stop-color="#c52b76"/>
      <stop offset="1" stop-color="#c52b76"/>
    </linearGradient>
    <clipPath id="clippath-2">
      <path class="cls-4" d="m120.14,146.95c-4.56,2.07-6.58,7.43-4.52,11.99,2.07,4.55,7.43,6.57,11.99,4.51,4.55-2.06,6.57-7.43,4.51-11.98-1.51-3.35-4.81-5.33-8.26-5.33-1.25,0-2.51.26-3.72.81m7-32.72c-.45.14-.7.63-.54,1.08,1.17,3.18,4.16,5.36,5.83,8.4,1.53,2.78,2.91,6.85,2.55,10.31-.08.86-1.3,1.01-1.6.19-.94-2.57-1.72-5.22-3.07-7.62-2.86-5.1-8.39-8.29-13.94-9.77-4.14,3.85-9.2,6.71-14.81,8.23.05.04.11.07.18.09.53.17,1.07.38,1.63.65,11.32,5.48,4.22,15.17,3.27,23.98-.96,8.88,1.34,19.27,6.25,26.76,1.14,1.74,6.32,7.92,7.91,3.74,1.06-2.76-6.56-12.13-8.11-15.12-4.78-9.27-4.44-22.01,6.11-27.01,0,0,.02,0,.03-.02.92-.43,1.65.86.82,1.44-.5.35-.97.73-1.41,1.13-.38.34-1.64,1.44-.39,1.59.99.12,3.65-.75,5.14-.83,1.86-.09,3.62.2,5.31.5,3.87.68,7.38,1.35,11.04-2.63,6.93-7.54-1.08-20.9-9.08-24.46-.83-.37-1.6-.75-2.38-.75-.24,0-.48.04-.73.12"/>
    </clipPath>
    <linearGradient id="_Безымянный_градиент_3" data-name="Безымянный градиент 3" x1="-162.84" y1="306.63" x2="-161.84" y2="306.63" gradientTransform="translate(17767.92 -9196.88) rotate(-90) scale(57.54 -57.54)" gradientUnits="userSpaceOnUse">
      <stop offset="0" stop-color="#f9b104"/>
      <stop offset=".22" stop-color="#f9b104"/>
      <stop offset=".97" stop-color="#e63312"/>
      <stop offset="1" stop-color="#e63312"/>
    </linearGradient>
    <clipPath id="clippath-3">
      <path class="cls-4" d="m44.97,145.07c-2.92,4.06-2,9.72,2.06,12.64s9.72,2,12.64-2.06c2.92-4.06,2-9.71-2.06-12.64-1.6-1.15-3.45-1.71-5.28-1.71-2.82,0-5.59,1.31-7.36,3.77m22.39-28.88c.12.55.2,1.13.25,1.74.89,12.55-11.05,11.22-19.17,14.78-8.17,3.59-16.04,10.76-20.08,18.75-.95,1.86-3.72,9.43.69,8.73,2.93-.46,7.25-11.74,9.08-14.57,5.65-8.76,16.86-14.81,26.46-8.16.01,0,.02,0,.03.02.83.58.08,1.86-.84,1.43-.56-.26-1.12-.48-1.68-.67-.49-.15-2.06-.7-1.57.46.38.92,2.47,2.8,3.27,4.05,3.32,5.17,2.42,11.39,9.99,13.1,10,2.26,17.58-11.34,16.68-20.06-.12-1.17-.17-2.27-.99-3.01-.35-.32-.9-.29-1.21.07-2.17,2.6-2.57,6.28-4.38,9.24-1.65,2.71-4.5,5.94-7.66,7.35-.8.36-1.53-.63-.97-1.3,1.76-2.09,3.67-4.08,5.08-6.45,3-5.03,3-11.42,1.52-16.97-5.54-1.7-10.51-4.73-14.52-8.71,0,.06.01.12.02.18"/>
    </clipPath>
    <linearGradient id="_Безымянный_градиент_4" data-name="Безымянный градиент 4" x1="-162.84" y1="306.71" x2="-161.84" y2="306.71" gradientTransform="translate(10101.7 19122.33) scale(61.9 -61.9)" gradientUnits="userSpaceOnUse">
      <stop offset="0" stop-color="#eba7cb"/>
      <stop offset=".31" stop-color="#eba7cb"/>
      <stop offset=".97" stop-color="#823f91"/>
      <stop offset="1" stop-color="#823f91"/>
    </linearGradient>
    <clipPath id="clippath-4">
      <path class="cls-4" d="m11.75,85.12c-.49,4.97,3.14,9.41,8.12,9.91,4.97.49,9.41-3.14,9.91-8.12.49-4.97-3.14-9.41-8.12-9.91-.3-.03-.6-.04-.9-.04-4.6,0-8.54,3.49-9.01,8.17m-3.94-19.29c-2.09.11-10.02,1.5-7.21,4.97,1.25,1.54,7.01,1.19,11.68.85,2.31-.17,4.36-.34,5.48-.29,10.41.5,21.27,7.18,20.32,18.81,0,.01,0,.02,0,.04-.09,1.01-1.56,1-1.65-.02-.06-.6-.15-1.2-.27-1.78-.11-.5-.43-2.14-1.19-1.13-.59.79-1.17,3.54-1.86,4.86-2.81,5.46-8.64,7.8-6.33,15.21,3.05,9.78,18.62,9.54,25.72,4.39.95-.69,1.87-1.29,2.1-2.37.1-.46-.2-.92-.66-1.01-1.9-.33-3.81.01-5.75.35-1.47.26-2.95.52-4.45.49-3.16-.07-7.39-.92-10.2-2.95-.7-.52-.22-1.64.65-1.49,2.69.48,5.37,1.13,8.12,1.16,5.86.07,11.38-3.11,15.44-7.17-.58-2.54-.89-5.18-.89-7.9,0-3.12.4-6.16,1.17-9.04-.05.03-.1.07-.15.11-.41.37-.87.73-1.38,1.08-10.41,7.06-15.24-3.94-22.39-9.18-6.72-4.92-15.98-8.04-24.44-8.04-.62,0-1.24.02-1.85.05"/>
    </clipPath>
    <linearGradient id="_Безымянный_градиент_5" data-name="Безымянный градиент 5" x1="-162.84" y1="306.59" x2="-161.84" y2="306.59" gradientTransform="translate(-17144.57 9185.26) rotate(90) scale(56.01 -56.01)" gradientUnits="userSpaceOnUse">
      <stop offset="0" stop-color="#c4db9b"/>
      <stop offset=".39" stop-color="#c4db9b"/>
      <stop offset=".56" stop-color="#b5d7a4"/>
      <stop offset=".87" stop-color="#8fccbd"/>
      <stop offset=".91" stop-color="#8acbc1"/>
      <stop offset="1" stop-color="#8acbc1"/>
    </linearGradient>
    <clipPath id="clippath-5">
      <path class="cls-4" d="m56.95,18.24c-4.56,2.07-6.58,7.43-4.52,11.99,2.07,4.56,7.43,6.58,11.99,4.51,4.56-2.06,6.58-7.43,4.51-11.98-1.51-3.35-4.81-5.33-8.26-5.33-1.25,0-2.51.26-3.73.81M63.75,1.42c-1.05,2.77,6.57,12.13,8.12,15.13,4.77,9.26,4.43,22-6.11,27.01-.01,0-.02.01-.03.01-.92.43-1.65-.85-.82-1.44.5-.35.97-.72,1.41-1.12.37-.34,1.63-1.44.38-1.59-.98-.12-3.65.75-5.13.82-1.86.09-3.62-.2-5.3-.5-3.87-.68-7.38-1.35-11.04,2.63-6.94,7.55,1.07,20.9,9.08,24.46,1.08.48,2.06.98,3.11.64.45-.15.7-.64.53-1.08-1.17-3.18-4.16-5.36-5.83-8.4-1.52-2.78-2.9-6.86-2.55-10.31.09-.87,1.31-1.01,1.61-.19.94,2.57,1.71,5.21,3.06,7.61,2.87,5.11,8.4,8.3,13.95,9.77,4.14-3.84,9.2-6.71,14.81-8.22-.05-.04-.11-.07-.18-.09-.53-.17-1.08-.39-1.63-.66-11.32-5.48-4.22-15.16-3.27-23.97.96-8.88-1.34-19.28-6.25-26.76-.87-1.32-4.03-5.17-6.22-5.17-.71,0-1.31.4-1.7,1.42"/>
    </clipPath>
    <linearGradient id="_Безымянный_градиент_6" data-name="Безымянный градиент 6" x1="-162.84" y1="306.62" x2="-161.84" y2="306.62" gradientTransform="translate(-18301.56 9757) rotate(90) scale(59.89 -59.89)" gradientUnits="userSpaceOnUse">
      <stop offset="0" stop-color="#83d0f5"/>
      <stop offset=".35" stop-color="#83d0f5"/>
      <stop offset=".95" stop-color="#195393"/>
      <stop offset="1" stop-color="#195393"/>
    </linearGradient>
    <clipPath id="clippath-6">
      <path class="cls-4" d="m124.89,26.04c-2.93,4.06-2,9.72,2.05,12.64,4.06,2.93,9.72,2,12.65-2.05,2.92-4.06,2-9.72-2.06-12.64-1.6-1.16-3.46-1.71-5.29-1.71-2.81,0-5.58,1.31-7.35,3.76m30.62-4.53c-2.93.46-7.25,11.73-9.08,14.57-5.65,8.75-16.87,14.8-26.46,8.16-.01-.01-.02-.02-.03-.02-.83-.59-.08-1.86.84-1.43.55.26,1.11.48,1.68.66.48.16,2.06.7,1.57-.46-.39-.91-2.47-2.79-3.27-4.04-3.32-5.17-2.43-11.4-9.99-13.1-10-2.26-17.59,11.34-16.69,20.05.12,1.18.18,2.27,1,3.02.35.31.9.28,1.2-.08,2.18-2.6,2.58-6.27,4.39-9.24,1.64-2.7,4.49-5.94,7.66-7.35.8-.35,1.53.63.97,1.3-1.76,2.09-3.67,4.08-5.08,6.45-3,5.04-3.01,11.42-1.52,16.97,5.54,1.7,10.51,4.73,14.52,8.71,0-.06-.01-.12-.02-.18-.12-.54-.2-1.12-.25-1.74-.89-12.54,11.05-11.21,19.16-14.78,8.18-3.59,16.05-10.76,20.09-18.74.9-1.79,3.48-8.77-.15-8.78-.17,0-.35.02-.54.05"/>
    </clipPath>
    <linearGradient id="_Безымянный_градиент_7" data-name="Безымянный градиент 7" x1="-162.84" y1="306.72" x2="-161.84" y2="306.72" gradientTransform="translate(-10164.08 -19410.51) rotate(-180) scale(63.43 -63.43)" gradientUnits="userSpaceOnUse">
      <stop offset="0" stop-color="#e8e100"/>
      <stop offset=".14" stop-color="#e8e100"/>
      <stop offset="1" stop-color="#0a9d46"/>
    </linearGradient>
    <clipPath id="clippath-7">
      <path class="cls-4" d="m61.47,90.85c0-17.01,13.79-30.81,30.8-30.81s30.81,13.79,30.81,30.81-13.79,30.8-30.81,30.8-30.8-13.79-30.8-30.8m-4.63,0c0,19.57,15.86,35.43,35.43,35.43s35.43-15.86,35.43-35.43-15.86-35.43-35.43-35.43-35.43,15.86-35.43,35.43"/>
    </clipPath>
    <linearGradient id="_Безымянный_градиент_8-2" data-name="Безымянный градиент 8" y1="306.6" y2="306.6" gradientTransform="translate(21260.3 -11118.52) rotate(-90) scale(69.04 -69.04)" xlink:href="#_Безымянный_градиент_8"/>
  </defs>
  <g id="_Слой_1-2" data-name="Слой 1">
    <g class="cls-16">
      <rect class="cls-5" x="41.52" y="38.16" width="101.51" height="105.37" transform="translate(-3.11 3.28) rotate(-2)"/>
    </g>
    <path class="cls-6" d="m105.54,78.53l.75,5.55c.07.51-.34.96-.85.94l-1.03-.03c-.38-.01-.7-.27-.79-.64-.35-1.51-1.45-5.24-3.66-5.24h-2.75c-.46,0-.83.37-.83.83v23.13c0,.49,1.11,1.21,1.4,1.36,1.15.6,1.96-.33,1.88,1.27-.02.45-.39.8-.83.8h-13.28c-.45,0-.81-.35-.83-.8-.08-1.6.74-.67,1.88-1.27.28-.15,1.39-.87,1.39-1.36v-23.13c0-.46-.37-.83-.83-.83h-2.75c-2.21,0-3.31,3.73-3.66,5.24-.09.37-.41.63-.79.64l-1.03.03c-.51.01-.92-.43-.85-.94l.75-5.55c.05-.41.41-.72.82-.72h25.06c.42,0,.77.31.82.72"/>
    <g class="cls-14">
      <rect class="cls-3" x="126.54" y="66.44" width="60.23" height="49.93"/>
    </g>
    <g class="cls-11">
      <rect class="cls-1" x="89.3" y="108.09" width="69.22" height="82.38" transform="translate(-49.59 62.46) rotate(-23.72)"/>
    </g>
    <g class="cls-17">
      <rect class="cls-2" x="20.04" y="98.29" width="75.92" height="80.31" transform="translate(-87.59 101.89) rotate(-53.17)"/>
    </g>
    <g class="cls-15">
      <rect class="cls-7" x="-.24" y="59.27" width="56.28" height="64.37" transform="translate(-65.59 111.49) rotate(-85.13)"/>
    </g>
    <g class="cls-18">
      <rect class="cls-8" x="29.83" y="-4.84" width="61.63" height="77.49" transform="translate(-6.98 17.97) rotate(-15.95)"/>
    </g>
    <g class="cls-12">
      <rect class="cls-9" x="86.57" y="5.9" width="79.71" height="75.35" transform="translate(-.74 84.94) rotate(-37.04)"/>
    </g>
    <g class="cls-13">
      <rect class="cls-10" x="42.17" y="40.74" width="100.21" height="100.21" transform="translate(-37.18 93.73) rotate(-45.83)"/>
    </g>
  </g>
</svg>